<svg xmlns="http://www.w3.org/2000/svg" width="778" height="355" viewBox="0 0 778 355" data-theme="light" data-conn="main/J13" data-cat="pwm" data-fill="#9a6700" data-heading="main-j13-pwm_a"><rect x="0.5" y="0.5" width="777" height="354" rx="10" fill="#ffffff" stroke="#d0d7de"/><text x="16" y="32" font-family="'IBM Plex Sans', -apple-system, 'Segoe UI', Helvetica, Arial, sans-serif" font-size="16" font-weight="700" fill="#1f2328">J13 PWM_A</text><text x="16" y="49" font-family="'IBM Plex Sans', -apple-system, 'Segoe UI', Helvetica, Arial, sans-serif" font-size="11" fill="#57606a">JST-SH 1x8 · 3.3 V logic</text><rect x="22" y="74" width="44" height="236" rx="4" fill="#dfe3e8" stroke="#57606a"/><rect x="18" y="82" width="4" height="220" rx="1" fill="#57606a"/><g id="main-J13-pin-1" data-pin="1"><rect x="37.0" y="87.0" width="14" height="14" fill="#ffffff" stroke="#57606a"/><text x="44.0" y="97.0" text-anchor="middle" font-family="'IBM Plex Sans', -apple-system, 'Segoe UI', Helvetica, Arial, sans-serif" font-size="8" font-weight="600" fill="#1f2328">1</text><line x1="66" y1="94.0" x2="80" y2="94.0" stroke="#57606a" stroke-width="1"/><rect x="80" y="83.0" width="115" height="22" rx="5" fill="#eaeef2"/><text x="88" y="98.3" font-family="'IBM Plex Mono', ui-monospace, SFMono-Regular, Menlo, Consolas, monospace" font-size="12" font-weight="500" fill="#57606a">NC</text></g><g id="main-J13-pin-2" data-pin="2"><circle cx="44.0" cy="122.0" r="7" fill="#ffffff" stroke="#57606a"/><text x="44.0" y="125.0" text-anchor="middle" font-family="'IBM Plex Sans', -apple-system, 'Segoe UI', Helvetica, Arial, sans-serif" font-size="8" font-weight="600" fill="#1f2328">2</text><line x1="66" y1="122.0" x2="80" y2="122.0" stroke="#57606a" stroke-width="1"/><rect x="80" y="111.0" width="115" height="22" rx="5" fill="#1f2328"/><text x="88" y="126.3" font-family="'IBM Plex Mono', ui-monospace, SFMono-Regular, Menlo, Consolas, monospace" font-size="12" font-weight="500" fill="#ffffff">GND</text></g><g id="main-J13-pin-3" data-pin="3"><circle cx="44.0" cy="150.0" r="7" fill="#ffffff" stroke="#57606a"/><text x="44.0" y="153.0" text-anchor="middle" font-family="'IBM Plex Sans', -apple-system, 'Segoe UI', Helvetica, Arial, sans-serif" font-size="8" font-weight="600" fill="#1f2328">3</text><line x1="66" y1="150.0" x2="80" y2="150.0" stroke="#57606a" stroke-width="1"/><rect x="80" y="139.0" width="115" height="22" rx="5" fill="#eaeef2"/><text x="88" y="154.3" font-family="'IBM Plex Mono', ui-monospace, SFMono-Regular, Menlo, Consolas, monospace" font-size="12" font-weight="500" fill="#57606a">NC</text></g><g id="main-J13-pin-4" data-pin="4"><circle cx="44.0" cy="178.0" r="7" fill="#ffffff" stroke="#57606a"/><text x="44.0" y="181.0" text-anchor="middle" font-family="'IBM Plex Sans', -apple-system, 'Segoe UI', Helvetica, Arial, sans-serif" font-size="8" font-weight="600" fill="#1f2328">4</text><line x1="66" y1="178.0" x2="80" y2="178.0" stroke="#57606a" stroke-width="1"/><rect x="80" y="167.0" width="115" height="22" rx="5" fill="#0969da"/><text x="88" y="182.3" font-family="'IBM Plex Mono', ui-monospace, SFMono-Regular, Menlo, Consolas, monospace" font-size="12" font-weight="500" fill="#ffffff">ESC telemetry</text><rect x="201" y="167.0" width="77" height="22" rx="5" fill="none" stroke="#0969da" stroke-width="1.5"/><text x="209" y="182.3" font-family="'IBM Plex Mono', ui-monospace, SFMono-Regular, Menlo, Consolas, monospace" font-size="12" font-weight="500" fill="#0969da">ONE_WIRE</text><rect x="284" y="167.0" width="130" height="22" rx="5" fill="none" stroke="#57606a" stroke-width="1.5"/><text x="292" y="182.3" font-family="'IBM Plex Mono', ui-monospace, SFMono-Regular, Menlo, Consolas, monospace" font-size="12" font-weight="500" fill="#57606a">LPUART7_TX</text><rect x="564" y="167.0" width="92" height="22" rx="5" fill="none" stroke="#57606a" stroke-width="1.5"/><text x="572" y="182.3" font-family="'IBM Plex Mono', ui-monospace, SFMono-Regular, Menlo, Consolas, monospace" font-size="12" font-weight="500" fill="#57606a">GPIO4_IO31</text><rect x="662" y="167.0" width="100" height="22" rx="5" fill="none" stroke="#57606a" stroke-width="1.5"/><text x="670" y="182.3" font-family="'IBM Plex Mono', ui-monospace, SFMono-Regular, Menlo, Consolas, monospace" font-size="12" font-weight="500" fill="#57606a">GPIO_EMC_31</text></g><g id="main-J13-pin-5" data-pin="5"><circle cx="44.0" cy="206.0" r="7" fill="#ffffff" stroke="#57606a"/><text x="44.0" y="209.0" text-anchor="middle" font-family="'IBM Plex Sans', -apple-system, 'Segoe UI', Helvetica, Arial, sans-serif" font-size="8" font-weight="600" fill="#1f2328">5</text><line x1="66" y1="206.0" x2="80" y2="206.0" stroke="#57606a" stroke-width="1"/><rect x="80" y="195.0" width="115" height="22" rx="5" fill="#9a6700"/><text x="88" y="210.3" font-family="'IBM Plex Mono', ui-monospace, SFMono-Regular, Menlo, Consolas, monospace" font-size="12" font-weight="500" fill="#ffffff">PWM1</text><rect x="201" y="195.0" width="77" height="22" rx="5" fill="none" stroke="#9a6700" stroke-width="1.5"/><text x="209" y="210.3" font-family="'IBM Plex Mono', ui-monospace, SFMono-Regular, Menlo, Consolas, monospace" font-size="12" font-weight="500" fill="#9a6700">PWM_1</text><rect x="284" y="195.0" width="130" height="22" rx="5" fill="none" stroke="#57606a" stroke-width="1.5"/><text x="292" y="210.3" font-family="'IBM Plex Mono', ui-monospace, SFMono-Regular, Menlo, Consolas, monospace" font-size="12" font-weight="500" fill="#57606a">FLEXPWM2_PWMA00</text><rect x="420" y="195.0" width="138" height="22" rx="5" fill="none" stroke="#57606a" stroke-width="1.5"/><text x="428" y="210.3" font-family="'IBM Plex Mono', ui-monospace, SFMono-Regular, Menlo, Consolas, monospace" font-size="12" font-weight="500" fill="#57606a">FLEXIO1_FLEXIO06</text><rect x="564" y="195.0" width="92" height="22" rx="5" fill="none" stroke="#57606a" stroke-width="1.5"/><text x="572" y="210.3" font-family="'IBM Plex Mono', ui-monospace, SFMono-Regular, Menlo, Consolas, monospace" font-size="12" font-weight="500" fill="#57606a">GPIO4_IO06</text><rect x="662" y="195.0" width="100" height="22" rx="5" fill="none" stroke="#57606a" stroke-width="1.5"/><text x="670" y="210.3" font-family="'IBM Plex Mono', ui-monospace, SFMono-Regular, Menlo, Consolas, monospace" font-size="12" font-weight="500" fill="#57606a">GPIO_EMC_06</text></g><g id="main-J13-pin-6" data-pin="6"><circle cx="44.0" cy="234.0" r="7" fill="#ffffff" stroke="#57606a"/><text x="44.0" y="237.0" text-anchor="middle" font-family="'IBM Plex Sans', -apple-system, 'Segoe UI', Helvetica, Arial, sans-serif" font-size="8" font-weight="600" fill="#1f2328">6</text><line x1="66" y1="234.0" x2="80" y2="234.0" stroke="#57606a" stroke-width="1"/><rect x="80" y="223.0" width="115" height="22" rx="5" fill="#9a6700"/><text x="88" y="238.3" font-family="'IBM Plex Mono', ui-monospace, SFMono-Regular, Menlo, Consolas, monospace" font-size="12" font-weight="500" fill="#ffffff">PWM2</text><rect x="201" y="223.0" width="77" height="22" rx="5" fill="none" stroke="#9a6700" stroke-width="1.5"/><text x="209" y="238.3" font-family="'IBM Plex Mono', ui-monospace, SFMono-Regular, Menlo, Consolas, monospace" font-size="12" font-weight="500" fill="#9a6700">PWM_2</text><rect x="284" y="223.0" width="130" height="22" rx="5" fill="none" stroke="#57606a" stroke-width="1.5"/><text x="292" y="238.3" font-family="'IBM Plex Mono', ui-monospace, SFMono-Regular, Menlo, Consolas, monospace" font-size="12" font-weight="500" fill="#57606a">FLEXPWM2_PWMB00</text><rect x="420" y="223.0" width="138" height="22" rx="5" fill="none" stroke="#57606a" stroke-width="1.5"/><text x="428" y="238.3" font-family="'IBM Plex Mono', ui-monospace, SFMono-Regular, Menlo, Consolas, monospace" font-size="12" font-weight="500" fill="#57606a">FLEXIO1_FLEXIO07</text><rect x="564" y="223.0" width="92" height="22" rx="5" fill="none" stroke="#57606a" stroke-width="1.5"/><text x="572" y="238.3" font-family="'IBM Plex Mono', ui-monospace, SFMono-Regular, Menlo, Consolas, monospace" font-size="12" font-weight="500" fill="#57606a">GPIO4_IO07</text><rect x="662" y="223.0" width="100" height="22" rx="5" fill="none" stroke="#57606a" stroke-width="1.5"/><text x="670" y="238.3" font-family="'IBM Plex Mono', ui-monospace, SFMono-Regular, Menlo, Consolas, monospace" font-size="12" font-weight="500" fill="#57606a">GPIO_EMC_07</text></g><g id="main-J13-pin-7" data-pin="7"><circle cx="44.0" cy="262.0" r="7" fill="#ffffff" stroke="#57606a"/><text x="44.0" y="265.0" text-anchor="middle" font-family="'IBM Plex Sans', -apple-system, 'Segoe UI', Helvetica, Arial, sans-serif" font-size="8" font-weight="600" fill="#1f2328">7</text><line x1="66" y1="262.0" x2="80" y2="262.0" stroke="#57606a" stroke-width="1"/><rect x="80" y="251.0" width="115" height="22" rx="5" fill="#9a6700"/><text x="88" y="266.3" font-family="'IBM Plex Mono', ui-monospace, SFMono-Regular, Menlo, Consolas, monospace" font-size="12" font-weight="500" fill="#ffffff">PWM3</text><rect x="201" y="251.0" width="77" height="22" rx="5" fill="none" stroke="#9a6700" stroke-width="1.5"/><text x="209" y="266.3" font-family="'IBM Plex Mono', ui-monospace, SFMono-Regular, Menlo, Consolas, monospace" font-size="12" font-weight="500" fill="#9a6700">PWM_3</text><rect x="284" y="251.0" width="130" height="22" rx="5" fill="none" stroke="#57606a" stroke-width="1.5"/><text x="292" y="266.3" font-family="'IBM Plex Mono', ui-monospace, SFMono-Regular, Menlo, Consolas, monospace" font-size="12" font-weight="500" fill="#57606a">FLEXPWM2_PWMA01</text><rect x="420" y="251.0" width="138" height="22" rx="5" fill="none" stroke="#57606a" stroke-width="1.5"/><text x="428" y="266.3" font-family="'IBM Plex Mono', ui-monospace, SFMono-Regular, Menlo, Consolas, monospace" font-size="12" font-weight="500" fill="#57606a">FLEXIO1_FLEXIO08</text><rect x="564" y="251.0" width="92" height="22" rx="5" fill="none" stroke="#57606a" stroke-width="1.5"/><text x="572" y="266.3" font-family="'IBM Plex Mono', ui-monospace, SFMono-Regular, Menlo, Consolas, monospace" font-size="12" font-weight="500" fill="#57606a">GPIO4_IO08</text><rect x="662" y="251.0" width="100" height="22" rx="5" fill="none" stroke="#57606a" stroke-width="1.5"/><text x="670" y="266.3" font-family="'IBM Plex Mono', ui-monospace, SFMono-Regular, Menlo, Consolas, monospace" font-size="12" font-weight="500" fill="#57606a">GPIO_EMC_08</text></g><g id="main-J13-pin-8" data-pin="8"><circle cx="44.0" cy="290.0" r="7" fill="#ffffff" stroke="#57606a"/><text x="44.0" y="293.0" text-anchor="middle" font-family="'IBM Plex Sans', -apple-system, 'Segoe UI', Helvetica, Arial, sans-serif" font-size="8" font-weight="600" fill="#1f2328">8</text><line x1="66" y1="290.0" x2="80" y2="290.0" stroke="#57606a" stroke-width="1"/><rect x="80" y="279.0" width="115" height="22" rx="5" fill="#9a6700"/><text x="88" y="294.3" font-family="'IBM Plex Mono', ui-monospace, SFMono-Regular, Menlo, Consolas, monospace" font-size="12" font-weight="500" fill="#ffffff">PWM4</text><rect x="201" y="279.0" width="77" height="22" rx="5" fill="none" stroke="#9a6700" stroke-width="1.5"/><text x="209" y="294.3" font-family="'IBM Plex Mono', ui-monospace, SFMono-Regular, Menlo, Consolas, monospace" font-size="12" font-weight="500" fill="#9a6700">PWM_4</text><rect x="284" y="279.0" width="130" height="22" rx="5" fill="none" stroke="#57606a" stroke-width="1.5"/><text x="292" y="294.3" font-family="'IBM Plex Mono', ui-monospace, SFMono-Regular, Menlo, Consolas, monospace" font-size="12" font-weight="500" fill="#57606a">FLEXPWM2_PWMB01</text><rect x="420" y="279.0" width="138" height="22" rx="5" fill="none" stroke="#57606a" stroke-width="1.5"/><text x="428" y="294.3" font-family="'IBM Plex Mono', ui-monospace, SFMono-Regular, Menlo, Consolas, monospace" font-size="12" font-weight="500" fill="#57606a">FLEXIO1_FLEXIO09</text><rect x="564" y="279.0" width="92" height="22" rx="5" fill="none" stroke="#57606a" stroke-width="1.5"/><text x="572" y="294.3" font-family="'IBM Plex Mono', ui-monospace, SFMono-Regular, Menlo, Consolas, monospace" font-size="12" font-weight="500" fill="#57606a">GPIO4_IO09</text><rect x="662" y="279.0" width="100" height="22" rx="5" fill="none" stroke="#57606a" stroke-width="1.5"/><text x="670" y="294.3" font-family="'IBM Plex Mono', ui-monospace, SFMono-Regular, Menlo, Consolas, monospace" font-size="12" font-weight="500" fill="#57606a">GPIO_EMC_09</text></g><text x="16" y="334" font-family="'IBM Plex Sans', -apple-system, 'Segoe UI', Helvetica, Arial, sans-serif" font-size="12" fill="#57606a">Pin 4: LPUART7 in single-wire mode, receive only</text></svg>
